0
SECTION
2
HEADER
9
$INSUNITS
70
4
9
$ACADVER
1
AC1014
9
$HANDSEED
5
FFFF
0
ENDSEC
0
SECTION
2
TABLES
0
TABLE
2
VPORT
5
8
100
AcDbSymbolTable
0
ENDTAB
0
TABLE
2
LTYPE
5
5
100
AcDbSymbolTable
0
LTYPE
5
14
100
AcDbSymbolTableRecord
100
AcDbLinetypeTableRecord
2
BYBLOCK
70
0
0
LTYPE
5
15
100
AcDbSymbolTableRecord
100
AcDbLinetypeTableRecord
2
BYLAYER
70
0
0
ENDTAB
0
TABLE
2
LAYER
5
2
100
AcDbSymbolTable
70
2
0
LAYER
5
50
100
AcDbSymbolTableRecord
100
AcDbLayerTableRecord
2
0
70
0
6
CONTINUOUS
0
ENDTAB
0
TABLE
2
STYLE
5
3
100
AcDbSymbolTable
70
1
0
STYLE
5
11
100
AcDbSymbolTableRecord
100
AcDbTextStyleTableRecord
2
STANDARD
70
0
0
ENDTAB
0
TABLE
2
VIEW
5
6
100
AcDbSymbolTable
70
0
0
ENDTAB
0
TABLE
2
UCS
5
7
100
AcDbSymbolTable
70
0
0
ENDTAB
0
TABLE
2
APPID
5
9
100
AcDbSymbolTable
70
2
0
APPID
5
12
100
AcDbSymbolTableRecord
100
AcDbRegAppTableRecord
2
ACAD
70
0
0
ENDTAB
0
TABLE
2
DIMSTYLE
5
A
100
AcDbSymbolTable
70
1
0
ENDTAB
0
TABLE
2
BLOCK_RECORD
5
1
100
AcDbSymbolTable
70
1
0
BLOCK_RECORD
5
1F
100
AcDbSymbolTableRecord
100
AcDbBlockTableRecord
2
*MODEL_SPACE
0
BLOCK_RECORD
5
1B
100
AcDbSymbolTableRecord
100
AcDbBlockTableRecord
2
*PAPER_SPACE
0
ENDTAB
0
ENDSEC
0
SECTION
2
BLOCKS
0
BLOCK
5
20
100
AcDbEntity
100
AcDbBlockBegin
2
*MODEL_SPACE
0
ENDBLK
5
21
100
AcDbEntity
100
AcDbBlockEnd
0
BLOCK
5
1C
100
AcDbEntity
100
AcDbBlockBegin
2
*PAPER_SPACE
0
ENDBLK
5
1D
100
AcDbEntity
100
AcDbBlockEnd
0
ENDSEC
0
SECTION
2
ENTITIES
0
LWPOLYLINE
5
100
100
AcDbEntity
8
0
100
AcDbPolyline
90
10
70
1
43
0.0
10
-25.000000000000004
20
-75
42
0.41421356237309453
10
-19.999999999999996
20
-70
10
-20
20
-15
10
20
20
-15
10
20.000000000000004
20
-70
42
0.41421356237309531
10
25.000000000000004
20
-75
10
30.000000000000014
20
-75
10
30.000000000000039
20
-100
10
-30.000000000000068
20
-100
10
-30
20
-75
0
LWPOLYLINE
5
101
100
AcDbEntity
8
0
100
AcDbPolyline
90
26
70
1
43
0.0
10
-70.000000000000043
20
-4.9999999999999467
10
-70.000000000000128
20
-112.53321513039516
42
0.23513224784866391
10
-64.042496337785494
20
-124.50122498922877
10
-27.675285418676285
20
-151.97867323922239
42
0.16318765810956562
10
-21.646954526819371
20
-154
10
21.646954526819336
20
-154
42
0.16318765810956617
10
27.675285418676246
20
-151.97867323922239
10
64.042496337785536
20
-124.50122498922882
42
0.23513224784866316
10
70.000000000000171
20
-112.53321513039521
10
70.000000000000071
20
-5.0000000000000178
42
0.41421356237309392
10
60.000000000000085
20
4.9999999999999716
10
55.000000000000028
20
4.9999999999999822
42
-0.41421356237309426
10
45.000000000000057
20
14.999999999999982
10
45.000000000000057
20
52.000000000000014
42
0.41421356237309459
10
37.00000000000005
20
60.000000000000007
10
34.000000029376437
20
60
42
0.41421356237309459
10
26.00000002937643
20
52.000000000000014
10
26.000000029376437
20
40
10
-25.999999970623577
20
40
10
-25.999999970623566
20
52.000000000000036
42
0.4142135623730952
10
-33.999999970623563
20
60.000000000000036
10
-37.000000000000021
20
60.000000000000036
42
0.41421356237309553
10
-45.000000000000028
20
52.000000000000036
10
-45
20
15.000000000000053
42
-0.41421356237309531
10
-55
20
5.0000000000000426
10
-60.000000000000043
20
5.0000000000000435
42
0.41421356237309465
0
CIRCLE
5
102
100
AcDbEntity
8
0
100
AcDbCircle
10
-40
20
50
30
0
40
1.4999999999999991
210
0
220
-0
230
1
0
CIRCLE
5
103
100
AcDbEntity
8
0
100
AcDbCircle
10
-40.000000000000135
20
-49.999999999999943
30
0
40
1.5000000000000036
210
0
220
-0
230
1
0
CIRCLE
5
104
100
AcDbEntity
8
0
100
AcDbCircle
10
31.000000000000028
20
-144.50000000000003
30
0
40
1.4999999999999991
210
0
220
-0
230
1
0
LWPOLYLINE
5
105
100
AcDbEntity
8
0
100
AcDbPolyline
90
4
70
1
43
0.0
10
-40
20
-75
10
-40
20
-80
10
-55
20
-80
10
-55
20
-75
0
CIRCLE
5
106
100
AcDbEntity
8
0
100
AcDbCircle
10
4.7184478546569153e-14
20
-110
30
0
40
1.5000000000000002
210
0
220
-0
230
1
0
CIRCLE
5
107
100
AcDbEntity
8
0
100
AcDbCircle
10
31.000000000000028
20
-109.50000000000003
30
0
40
1.4999999999999991
210
0
220
-0
230
1
0
CIRCLE
5
108
100
AcDbEntity
8
0
100
AcDbCircle
10
0
20
10
30
0
40
1.4999999999999991
210
0
220
-0
230
1
0
CIRCLE
5
109
100
AcDbEntity
8
0
100
AcDbCircle
10
-30.050000000000004
20
0
30
0
40
1.4999999999999991
210
0
220
-0
230
1
0
CIRCLE
5
110
100
AcDbEntity
8
0
100
AcDbCircle
10
-60.000000000000135
20
-29.999999999999947
30
0
40
1.5000000000000036
210
0
220
-0
230
1
0
CIRCLE
5
111
100
AcDbEntity
8
0
100
AcDbCircle
10
-26.32
20
-44
30
0
40
1.4999999999999991
210
0
220
-0
230
1
0
CIRCLE
5
112
100
AcDbEntity
8
0
100
AcDbCircle
10
40
20
50
30
0
40
1.5000000000000036
210
0
220
-0
230
1
0
CIRCLE
5
113
100
AcDbEntity
8
0
100
AcDbCircle
10
-20
20
30
30
0
40
1.5000000000000002
210
0
220
-0
230
1
0
CIRCLE
5
114
100
AcDbEntity
8
0
100
AcDbCircle
10
-40
20
30
30
0
40
1.4999999999999991
210
0
220
-0
230
1
0
CIRCLE
5
115
100
AcDbEntity
8
0
100
AcDbCircle
10
20.00000000000005
20
-130
30
0
40
1.4999999999999991
210
0
220
-0
230
1
0
CIRCLE
5
116
100
AcDbEntity
8
0
100
AcDbCircle
10
20
20
30
30
0
40
1.4999999999999991
210
0
220
-0
230
1
0
CIRCLE
5
117
100
AcDbEntity
8
0
100
AcDbCircle
10
25
20
28.000000000000025
30
0
40
1.5000000000000036
210
0
220
-0
230
1
0
CIRCLE
5
118
100
AcDbEntity
8
0
100
AcDbCircle
10
0
20
30
30
0
40
1.4999999999999991
210
0
220
-0
230
1
0
CIRCLE
5
119
100
AcDbEntity
8
0
100
AcDbCircle
10
40
20
30
30
0
40
1.5000000000000036
210
0
220
-0
230
1
0
CIRCLE
5
120
100
AcDbEntity
8
0
100
AcDbCircle
10
-19.999999999999954
20
-130
30
0
40
1.5000000000000013
210
0
220
-0
230
1
0
CIRCLE
5
121
100
AcDbEntity
8
0
100
AcDbCircle
10
-40
20
10
30
0
40
1.4999999999999991
210
0
220
-0
230
1
0
CIRCLE
5
122
100
AcDbEntity
8
0
100
AcDbCircle
10
40
20
10
30
0
40
1.5000000000000036
210
0
220
-0
230
1
0
LWPOLYLINE
5
123
100
AcDbEntity
8
0
100
AcDbPolyline
90
4
70
1
43
0.0
10
-60.187293044088577
20
-35.850414426250765
10
-54.880677910464712
20
-38.914190102134242
42
0.38930472693274576
10
-51.500000000000135
20
-44.769696007084676
10
-51.500000000000128
20
-50.897247358851637
42
-0.48948944087838131
0
CIRCLE
5
124
100
AcDbEntity
8
0
100
AcDbCircle
10
-48.049999999999997
20
-17.499999999999996
30
0
40
1.5000000000000036
210
0
220
-0
230
1
0
CIRCLE
5
125
100
AcDbEntity
8
0
100
AcDbCircle
10
40.000000000000043
20
-130
30
0
40
1.4999999999999991
210
0
220
-0
230
1
0
CIRCLE
5
126
100
AcDbEntity
8
0
100
AcDbCircle
10
20
20
10
30
0
40
1.4999999999999991
210
0
220
-0
230
1
0
CIRCLE
5
127
100
AcDbEntity
8
0
100
AcDbCircle
10
-60.000000000000135
20
-49.999999999999943
30
0
40
1.5000000000000036
210
0
220
-0
230
1
0
CIRCLE
5
128
100
AcDbEntity
8
0
100
AcDbCircle
10
30.050000000000004
20
0
30
0
40
1.4999999999999991
210
0
220
-0
230
1
0
CIRCLE
5
129
100
AcDbEntity
8
0
100
AcDbCircle
10
4.7184478546569153e-14
20
-130
30
0
40
1.5000000000000002
210
0
220
-0
230
1
0
CIRCLE
5
130
100
AcDbEntity
8
0
100
AcDbCircle
10
-39.99999999999995
20
-110
30
0
40
1.4999999999999991
210
0
220
-0
230
1
0
CIRCLE
5
131
100
AcDbEntity
8
0
100
AcDbCircle
10
20.00000000000005
20
-110
30
0
40
1.4999999999999991
210
0
220
-0
230
1
0
CIRCLE
5
132
100
AcDbEntity
8
0
100
AcDbCircle
10
40.000000000000043
20
-110
30
0
40
1.4999999999999991
210
0
220
-0
230
1
0
CIRCLE
5
133
100
AcDbEntity
8
0
100
AcDbCircle
10
20.00000000000005
20
-150
30
0
40
1.4999999999999991
210
0
220
-0
230
1
0
CIRCLE
5
134
100
AcDbEntity
8
0
100
AcDbCircle
10
-19.999999999999954
20
-110
30
0
40
1.5000000000000013
210
0
220
-0
230
1
0
CIRCLE
5
135
100
AcDbEntity
8
0
100
AcDbCircle
10
-40.000000000000135
20
-29.999999999999947
30
0
40
1.5000000000000036
210
0
220
-0
230
1
0
CIRCLE
5
136
100
AcDbEntity
8
0
100
AcDbCircle
10
-30.999999999999975
20
-144.50000000000003
30
0
40
1.4999999999999991
210
0
220
-0
230
1
0
LWPOLYLINE
5
137
100
AcDbEntity
8
0
100
AcDbPolyline
90
4
70
1
43
0.0
10
-41.312706955911686
20
-33.252338214897442
42
0.48948944087838142
10
-58.687293044088577
20
-33.252338214897449
10
-53.380677910464705
20
-36.316113890780919
42
-0.38930472693274532
10
-46.619322089535558
20
-36.316113890780919
0
CIRCLE
5
138
100
AcDbEntity
8
0
100
AcDbCircle
10
-64.950000000000017
20
-60.899999999999999
30
0
40
1.5000000000000036
210
0
220
-0
230
1
0
CIRCLE
5
139
100
AcDbEntity
8
0
100
AcDbCircle
10
-25
20
28.000000000000004
30
0
40
1.5000000000000036
210
0
220
-0
230
1
0
CIRCLE
5
140
100
AcDbEntity
8
0
100
AcDbCircle
10
-20
20
10
30
0
40
1.5000000000000002
210
0
220
-0
230
1
0
CIRCLE
5
141
100
AcDbEntity
8
0
100
AcDbCircle
10
-19.999999999999954
20
-150
30
0
40
1.5000000000000013
210
0
220
-0
230
1
0
CIRCLE
5
142
100
AcDbEntity
8
0
100
AcDbCircle
10
-39.99999999999995
20
-130
30
0
40
1.4999999999999991
210
0
220
-0
230
1
0
CIRCLE
5
143
100
AcDbEntity
8
0
100
AcDbCircle
10
-30.999999999999975
20
-109.50000000000003
30
0
40
1.4999999999999991
210
0
220
-0
230
1
0
CIRCLE
5
144
100
AcDbEntity
8
0
100
AcDbCircle
10
4.7184478546569153e-14
20
-150
30
0
40
1.5000000000000002
210
0
220
-0
230
1
0
LWPOLYLINE
5
145
100
AcDbEntity
8
0
100
AcDbPolyline
90
4
70
1
43
0.0
10
-48.500000000000142
20
-50.897247358851637
42
0.48948944087838148
10
-39.812706955911693
20
-35.850414426250758
10
-45.119322089535544
20
-38.914190102134242
42
-0.38930472693274615
10
-48.500000000000142
20
-44.769696007084683
0
LWPOLYLINE
5
146
100
AcDbEntity
8
0
100
AcDbPolyline
90
16
70
1
43
0.0
10
65.000000968575478
20
-63.499999999999979
10
62.000000000000036
20
-63.499999999999979
42
0.41421356237309503
10
59.000000000000043
20
-66.499999999999972
10
59.000000000000043
20
-70.000001043081284
10
31.000000000000036
20
-70.000001043081284
10
31.000000000000036
20
-66.499999999999986
42
0.41421356237309592
10
28.000000000000039
20
-63.499999999999979
10
25.00000037252903
20
-63.499999999999979
10
25.00000037252903
20
-10.499999999999972
10
28.000000000000036
20
-10.499999999999972
42
0.41421356237309515
10
31.000000000000036
20
-7.4999999999999734
10
31.000000000000032
20
-4.0000000596046448
10
59.000000000000043
20
-4.0000000596046448
10
59.000000000000043
20
-7.4999999999999734
42
0.4142135623730947
10
62.000000000000036
20
-10.499999999999968
10
65.000000968575478
20
-10.499999999999972
0
CIRCLE
5
147
100
AcDbEntity
8
0
100
AcDbCircle
10
28.000000000000036
20
-7.4999999999999742
30
0
40
1.4999999999999991
210
0
220
-0
230
1
0
CIRCLE
5
148
100
AcDbEntity
8
0
100
AcDbCircle
10
62.000000000000036
20
-66.499999999999972
30
0
40
1.5000000000000036
210
0
220
-0
230
1
0
CIRCLE
5
149
100
AcDbEntity
8
0
100
AcDbCircle
10
62.000000000000036
20
-7.4999999999999698
30
0
40
1.5000000000000036
210
0
220
-0
230
1
0
CIRCLE
5
150
100
AcDbEntity
8
0
100
AcDbCircle
10
28.000000000000039
20
-66.499999999999972
30
0
40
1.4999999999999991
210
0
220
-0
230
1
0
CIRCLE
5
151
100
AcDbEntity
8
0
100
AcDbCircle
10
38.050000000000004
20
0
30
0
40
2.0000000000000018
210
0
220
-0
230
1
0
CIRCLE
5
152
100
AcDbEntity
8
0
100
AcDbCircle
10
-38.050000000000004
20
0
30
0
40
2.0000000000000018
210
0
220
-0
230
1
0
CIRCLE
5
153
100
AcDbEntity
8
0
100
AcDbCircle
10
60.000000000000043
20
-110
30
0
40
2.0000000000000018
210
0
220
-0
230
1
0
CIRCLE
5
154
100
AcDbEntity
8
0
100
AcDbCircle
10
-59.999999999999957
20
-110
30
0
40
2.0000000000000018
210
0
220
-0
230
1
0
CIRCLE
5
155
100
AcDbEntity
8
0
100
AcDbCircle
10
-39.999999999999957
20
-90
30
0
40
2.0000000000000018
210
0
220
-0
230
1
0
CIRCLE
5
156
100
AcDbEntity
8
0
100
AcDbCircle
10
60.000000000000043
20
-90
30
0
40
2.0000000000000018
210
0
220
-0
230
1
0
CIRCLE
5
157
100
AcDbEntity
8
0
100
AcDbCircle
10
-59.999999999999957
20
-90
30
0
40
2.0000000000000018
210
0
220
-0
230
1
0
CIRCLE
5
158
100
AcDbEntity
8
0
100
AcDbCircle
10
40.000000000000043
20
-90
30
0
40
2.0000000000000018
210
0
220
-0
230
1
0
ENDSEC
0
SECTION
2
OBJECTS
0
DICTIONARY
5
C
100
AcDbDictionary
3
ACAD_GROUP
350
D
3
ACAD_MLINESTYLE
350
17
0
DICTIONARY
5
D
100
AcDbDictionary
0
DICTIONARY
5
1A
330
C
100
AcDbDictionary
0
DICTIONARY
5
17
100
AcDbDictionary
0
ENDSEC
0
EOF
